#!OML:ASF I:\Random Stuff\random\construction\7_22_03\Session 2\subj1.ASF
:FULLY-SPECIFIED
:DEGREES
550
root -9.17647 17.6115 -5.29011 -498.934 71.2473 -510.603
lowerback 13.4957 1.50622 -6.88676
upperback 5.93135 1.79278 -9.44437
thorax -1.11853 1.26127 -6.40107
lowerneck -18.8502 -4.0542 -5.73192
upperneck 31.0956 -6.2443 9.3115
head 14.3439 -1.83399 3.73924
rclavicle -3.02153e-014 -9.85972e-014
rhumerus 56.4051 71.8108 4.24717
rradius 79.7508
rwrist 23.4354
rhand -6.84054 0.308418
rfingers 7.12502
rthumb 19.0242 -28.7812
lclavicle -3.02153e-014 -9.85972e-014
lhumerus 22.8396 -63.8742 71.5867
lradius 31.9164
lwrist -10.1743
lhand -25.9754 55.4194
lfingers 7.12502
lthumb 0.569459 85.3984
rfemur -6.65246 -8.80798 23.6418
rtibia -6.36111e-015
rfoot -1.83886 -9.45005
rtoes -19.2779
lfemur -32.2964 -5.59909 -4.34535
ltibia 34.3358
lfoot -14.273 -1.05287
ltoes -31.8405
551
root -9.18441 17.6138 -5.29249 -498.918 71.2781 -510.721
lowerback 13.5709 1.4762 -6.78955
upperback 5.94354 1.75693 -9.45569
thorax -1.14612 1.24581 -6.46688
lowerneck -18.9195 -4.08803 -5.69964
upperneck 31.0951 -6.26241 9.17324
head 14.3532 -1.85759 3.67156
rclavicle 2.70347e-014 6.67916e-014
rhumerus 56.7919 71.8915 4.5555
rradius 79.5025
rwrist 23.3472
rhand -6.61651 0.532287
rfingers 7.12502
rthumb 19.2396 -28.536
lclavicle 2.70347e-014 6.67916e-014
lhumerus 23.267 -63.9795 71.1644
lradius 31.9275
lwrist -10.0074
lhand -26.1196 55.4096
lfingers 7.12502
lthumb 0.430218 85.3889
rfemur -6.82846 -8.80321 23.6021
rtibia 1.82882e-014
rfoot -1.81026 -9.45408
rtoes -19.5431
lfemur -32.4103 -5.66676 -4.37374
ltibia 34.2372
lfoot -14.2012 -0.956905
ltoes -32.0921
552
root -9.19078 17.6174 -5.29483 -498.985 71.3055 -510.926
lowerback 13.6549 1.44078 -6.73752
upperback 5.95127 1.7086 -9.48131
thorax -1.18424 1.22449 -6.52164
lowerneck -18.9032 -4.08705 -5.70397
upperneck 31.0188 -6.25725 9.1648
head 14.3146 -1.86038 3.66582
rclavicle 0 -4.45278e-014
rhumerus 57.1969 72.0045 4.86528
rradius 79.2343
rwrist 23.4892
rhand -6.83091 1.57693
rfingers 7.12502
rthumb 19.0334 -27.5118
lclavicle 0 -4.45278e-014
lhumerus 23.4785 -63.9875 70.9448
lradius 31.9837
lwrist -10.0006
lhand -26.1328 55.5456
lfingers 7.12502
lthumb 0.417492 85.5249
rfemur -6.99814 -8.82166 23.5325
rtibia -1.27222e-014
rfoot -1.79175 -9.43957
rtoes -19.4342
lfemur -32.5267 -5.76557 -4.41945
ltibia 34.1458
lfoot -14.1524 -0.838939
ltoes -32.3783
553
root -9.19629 17.6221 -5.29671 -498.982 71.3093 -511.075
lowerback 13.7126 1.41414 -6.66853
upperback 5.95334 1.67598 -9.50847
thorax -1.21299 1.21086 -6.58885
lowerneck -18.8183 -4.08676 -5.75267
upperneck 30.9243 -6.2715 9.26355
head 14.2617 -1.86294 3.70879
rclavicle 4.13472e-014 -9.22361e-014
rhumerus 57.717 72.2644 5.3481
rradius 79.1709
rwrist 23.6949
rhand -7.26557 2.10885
rfingers 7.12502
rthumb 18.6154 -27.0204
lclavicle 4.13472e-014 -9.22361e-014
lhumerus 23.6166 -63.9572 70.8191
lradius 32.0221
lwrist -10.091
lhand -26.0389 55.6505
lfingers 7.12502
lthumb 0.50819 85.6297
rfemur -7.17129 -8.84446 23.4974
rtibia -9.54166e-015
rfoot -1.81074 -9.4169
rtoes -19.1089
lfemur -32.66 -5.89574 -4.4142
ltibia 34.0596
lfoot -14.0883 -0.714057
ltoes -32.3132
554
root -9.19988 17.6269 -5.2975 -498.783 71.2988 -511.021
lowerback 13.7304 1.4215 -6.56829
upperback 5.95976 1.69622 -9.51963
thorax -1.21224 1.22274 -6.66188
lowerneck -18.7145 -4.11978 -5.76616
upperneck 30.8844 -6.32955 9.30946
head 14.2297 -1.88615 3.71822
rclavicle 5.725e-014 6.36111e-014
rhumerus 57.8877 72.6038 5.47436
rradius 79.2651
rwrist 23.8862
rhand -7.63805 1.77712
rfingers 7.12502
rthumb 18.2571 -27.3861
lclavicle 5.725e-014 6.36111e-014
lhumerus 24.0296 -64.0946 70.4423
lradius 32.0479
lwrist -10.0219
lhand -26.0001 55.8101
lfingers 7.12502
lthumb 0.545676 85.7892
rfemur -7.34083 -8.83152 23.5393
rtibia 0
rfoot -1.87501 -9.40318
rtoes -18.9381
lfemur -32.7749 -6.05932 -4.31365
ltibia 33.9673
lfoot -14.0208 -0.549108
ltoes -31.9256
